<svg width="394" height="30" viewBox="0 0 394 30" xmlns="http://www.w3.org/2000/svg" xmlns:xlink="http://www.w3.org/1999/xlink"><title>Group 37</title><desc>Created with Sketch.</desc><defs/><g id="Embedded-player" stroke="none" stroke-width="1" fill="none" fill-rule="evenodd" stroke-linecap="square"><g id="Group-37" transform="translate(-1.000000, 0.000000)" stroke="#868686"><path d="M11.8000488 2.77777778V28.3333333" id="Line-2" style="mix-blend-mode:lighten"/><path d="M15.8000488 2.77777778V28.3333333" id="Line-2" style="mix-blend-mode:lighten"/><path d="M9.80004883 6.11111111V23.8888889" id="Line-2" style="mix-blend-mode:lighten"/><path d="M17.8000488 6.11111111V23.8888889" id="Line-2" style="mix-blend-mode:lighten"/><path d="M7.80004883 2.77777778V27.2222222" id="Line-2" style="mix-blend-mode:lighten"/><path d="M3.80004883 13.8888889v2.2222222" id="Line-2" style="mix-blend-mode:lighten"/><path d="M5.80004883 13.8888889v2.2222222" id="Line-2" style="mix-blend-mode:lighten"/><path d="M1.80004883 7.22222222V22.7777778" id="Line-2" style="mix-blend-mode:lighten"/><path d="M23.8000488 12.7777778v4.4444444" id="Line-2" style="mix-blend-mode:lighten"/><path d="M21.8000488 10.5555556v8.8888888" id="Line-2" style="mix-blend-mode:lighten"/><path d="M19.8000488 8.33333333V21.6666667" id="Line-2" style="mix-blend-mode:lighten"/><path d="M13.8000488.555555556V29.4444444" id="Line-2" style="mix-blend-mode:lighten"/><path d="M35.8000488 6.11111111V23.8888889" id="Line-2" style="mix-blend-mode:lighten"/><path d="M33.8000488 9.44444444V20.5555556" id="Line-2" style="mix-blend-mode:lighten"/><path d="M29.8000488 12.7777778v4.4444444" id="Line-2" style="mix-blend-mode:lighten"/><path d="M31.8000488 12.7777778v4.4444444" id="Line-2" style="mix-blend-mode:lighten"/><path d="M27.8000488 6.11111111V23.8888889" id="Line-2" style="mix-blend-mode:lighten"/><path d="M25.8000488 10.5555556v8.8888888" id="Line-2" style="mix-blend-mode:lighten"/><path d="M47.8000488 7.22222222V22.7777778" id="Line-2" style="mix-blend-mode:lighten"/><path d="M45.8000488 11.6666667v5.5555555" id="Line-2" style="mix-blend-mode:lighten"/><path d="M43.8000488 8.33333333V21.6666667" id="Line-2" style="mix-blend-mode:lighten"/><path d="M41.8000488 10.5555556v8.8888888" id="Line-2" style="mix-blend-mode:lighten"/><path d="M39.8000488 1.66666667V28.3333333" id="Line-2" style="mix-blend-mode:lighten"/><path d="M53.8000488 12.7777778v4.4444444" id="Line-2" style="mix-blend-mode:lighten"/><path d="M51.8000488 7.22222222V22.7777778" id="Line-2" style="mix-blend-mode:lighten"/><path d="M49.8000488 5V25" id="Line-2" style="mix-blend-mode:lighten"/><path d="M37.8000488 6.11111111V23.8888889" id="Line-2" style="mix-blend-mode:lighten"/><path d="M61.8000488 2.77777778V28.3333333" id="Line-2" style="mix-blend-mode:lighten"/><path d="M65.8000488 2.77777778V28.3333333" id="Line-2" style="mix-blend-mode:lighten"/><path d="M59.8000488 6.11111111V23.8888889" id="Line-2" style="mix-blend-mode:lighten"/><path d="M67.8000488 6.11111111V23.8888889" id="Line-2" style="mix-blend-mode:lighten"/><path d="M57.8000488 2.77777778V27.2222222" id="Line-2" style="mix-blend-mode:lighten"/><path d="M53.8000488 13.8888889v2.2222222" id="Line-2" style="mix-blend-mode:lighten"/><path d="M55.8000488 13.8888889v2.2222222" id="Line-2" style="mix-blend-mode:lighten"/><path d="M51.8000488 7.22222222V22.7777778" id="Line-2" style="mix-blend-mode:lighten"/><path d="M51.8000488 2.77777778V28.3333333" id="Line-2" style="mix-blend-mode:lighten"/><path d="M55.8000488 2.77777778V28.3333333" id="Line-2" style="mix-blend-mode:lighten"/><path d="M49.8000488 6.11111111V23.8888889" id="Line-2" style="mix-blend-mode:lighten"/><path d="M57.8000488 6.11111111V23.8888889" id="Line-2" style="mix-blend-mode:lighten"/><path d="M47.8000488 2.77777778V27.2222222" id="Line-2" style="mix-blend-mode:lighten"/><path d="M43.8000488 13.8888889v2.2222222" id="Line-2" style="mix-blend-mode:lighten"/><path d="M45.8000488 13.8888889v2.2222222" id="Line-2" style="mix-blend-mode:lighten"/><path d="M41.8000488 7.22222222V22.7777778" id="Line-2" style="mix-blend-mode:lighten"/><path d="M63.8000488 12.7777778v4.4444444" id="Line-2" style="mix-blend-mode:lighten"/><path d="M61.8000488 10.5555556v8.8888888" id="Line-2" style="mix-blend-mode:lighten"/><path d="M59.8000488 8.33333333V21.6666667" id="Line-2" style="mix-blend-mode:lighten"/><path d="M53.8000488.555555556V29.4444444" id="Line-2" style="mix-blend-mode:lighten"/><path d="M75.8000488 6.11111111V23.8888889" id="Line-2" style="mix-blend-mode:lighten"/><path d="M73.8000488 9.44444444V20.5555556" id="Line-2" style="mix-blend-mode:lighten"/><path d="M69.8000488 12.7777778v4.4444444" id="Line-2" style="mix-blend-mode:lighten"/><path d="M71.8000488 12.7777778v4.4444444" id="Line-2" style="mix-blend-mode:lighten"/><path d="M67.8000488 6.11111111V23.8888889" id="Line-2" style="mix-blend-mode:lighten"/><path d="M65.8000488 10.5555556v8.8888888" id="Line-2" style="mix-blend-mode:lighten"/><path d="M87.8000488 7.22222222V22.7777778" id="Line-2" style="mix-blend-mode:lighten"/><path d="M85.8000488 11.6666667v5.5555555" id="Line-2" style="mix-blend-mode:lighten"/><path d="M83.8000488 8.33333333V21.6666667" id="Line-2" style="mix-blend-mode:lighten"/><path d="M81.8000488 10.5555556v8.8888888" id="Line-2" style="mix-blend-mode:lighten"/><path d="M79.8000488 1.66666667V28.3333333" id="Line-2" style="mix-blend-mode:lighten"/><path d="M93.8000488 12.7777778v4.4444444" id="Line-2" style="mix-blend-mode:lighten"/><path d="M91.8000488 7.22222222V22.7777778" id="Line-2" style="mix-blend-mode:lighten"/><path d="M89.8000488 5V25" id="Line-2" style="mix-blend-mode:lighten"/><path d="M77.8000488 6.11111111V23.8888889" id="Line-2" style="mix-blend-mode:lighten"/><path d="M97.8000488 2.77777778V27.2222222" id="Line-2" style="mix-blend-mode:lighten"/><path d="M93.8000488 13.8888889v2.2222222" id="Line-2" style="mix-blend-mode:lighten"/><path d="M95.8000488 13.8888889v2.2222222" id="Line-2" style="mix-blend-mode:lighten"/><path d="M91.8000488 7.22222222V22.7777778" id="Line-2" style="mix-blend-mode:lighten"/><path d="M73.8000488 12.7777778v4.4444444" id="Line-2" style="mix-blend-mode:lighten"/><path d="M71.8000488 10.5555556v8.8888888" id="Line-2" style="mix-blend-mode:lighten"/><path d="M69.8000488 8.33333333V21.6666667" id="Line-2" style="mix-blend-mode:lighten"/><path d="M63.8000488.555555556V29.4444444" id="Line-2" style="mix-blend-mode:lighten"/><path d="M85.8000488 6.11111111V23.8888889" id="Line-2" style="mix-blend-mode:lighten"/><path d="M83.8000488 9.44444444V20.5555556" id="Line-2" style="mix-blend-mode:lighten"/><path d="M79.8000488 12.7777778v4.4444444" id="Line-2" style="mix-blend-mode:lighten"/><path d="M81.8000488 12.7777778v4.4444444" id="Line-2" style="mix-blend-mode:lighten"/><path d="M77.8000488 6.11111111V23.8888889" id="Line-2" style="mix-blend-mode:lighten"/><path d="M75.8000488 10.5555556v8.8888888" id="Line-2" style="mix-blend-mode:lighten"/><path d="M97.8000488 7.22222222V22.7777778" id="Line-2" style="mix-blend-mode:lighten"/><path d="M95.8000488 11.6666667v5.5555555" id="Line-2" style="mix-blend-mode:lighten"/><path d="M93.8000488 8.33333333V21.6666667" id="Line-2" style="mix-blend-mode:lighten"/><path d="M91.8000488 10.5555556v8.8888888" id="Line-2" style="mix-blend-mode:lighten"/><path d="M89.8000488 1.66666667V28.3333333" id="Line-2" style="mix-blend-mode:lighten"/><path d="M87.8000488 6.11111111V23.8888889" id="Line-2" style="mix-blend-mode:lighten"/><path d="M301.800049 2.77777778V28.3333333" id="Line-2" style="mix-blend-mode:lighten"/><path d="M305.800049 2.77777778V28.3333333" id="Line-2" style="mix-blend-mode:lighten"/><path d="M299.800049 6.11111111V23.8888889" id="Line-2" style="mix-blend-mode:lighten"/><path d="M307.800049 6.11111111V23.8888889" id="Line-2" style="mix-blend-mode:lighten"/><path d="M297.800049 2.77777778V27.2222222" id="Line-2" style="mix-blend-mode:lighten"/><path d="M293.800049 13.8888889v2.2222222" id="Line-2" style="mix-blend-mode:lighten"/><path d="M295.800049 13.8888889v2.2222222" id="Line-2" style="mix-blend-mode:lighten"/><path d="M291.800049 7.22222222V22.7777778" id="Line-2" style="mix-blend-mode:lighten"/><path d="M313.800049 12.7777778v4.4444444" id="Line-2" style="mix-blend-mode:lighten"/><path d="M311.800049 10.5555556v8.8888888" id="Line-2" style="mix-blend-mode:lighten"/><path d="M309.800049 8.33333333V21.6666667" id="Line-2" style="mix-blend-mode:lighten"/><path d="M303.800049.555555556V29.4444444" id="Line-2" style="mix-blend-mode:lighten"/><path d="M325.800049 6.11111111V23.8888889" id="Line-2" style="mix-blend-mode:lighten"/><path d="M323.800049 9.44444444V20.5555556" id="Line-2" style="mix-blend-mode:lighten"/><path d="M319.800049 12.7777778v4.4444444" id="Line-2" style="mix-blend-mode:lighten"/><path d="M321.800049 12.7777778v4.4444444" id="Line-2" style="mix-blend-mode:lighten"/><path d="M317.800049 6.11111111V23.8888889" id="Line-2" style="mix-blend-mode:lighten"/><path d="M315.800049 10.5555556v8.8888888" id="Line-2" style="mix-blend-mode:lighten"/><path d="M133.800049 12.7777778v4.4444444" id="Line-2" style="mix-blend-mode:lighten"/><path d="M131.800049 10.5555556v8.8888888" id="Line-2" style="mix-blend-mode:lighten"/><path d="M139.800049 12.7777778v4.4444444" id="Line-2" style="mix-blend-mode:lighten"/><path d="M137.800049 6.11111111V23.8888889" id="Line-2" style="mix-blend-mode:lighten"/><path d="M135.800049 10.5555556v8.8888888" id="Line-2" style="mix-blend-mode:lighten"/><path d="M337.800049 7.22222222V22.7777778" id="Line-2" style="mix-blend-mode:lighten"/><path d="M335.800049 11.6666667v5.5555555" id="Line-2" style="mix-blend-mode:lighten"/><path d="M333.800049 8.33333333V21.6666667" id="Line-2" style="mix-blend-mode:lighten"/><path d="M331.800049 10.5555556v8.8888888" id="Line-2" style="mix-blend-mode:lighten"/><path d="M329.800049 1.66666667V28.3333333" id="Line-2" style="mix-blend-mode:lighten"/><path d="M343.800049 12.7777778v4.4444444" id="Line-2" style="mix-blend-mode:lighten"/><path d="M341.800049 7.22222222V22.7777778" id="Line-2" style="mix-blend-mode:lighten"/><path d="M339.800049 5V25" id="Line-2" style="mix-blend-mode:lighten"/><path d="M327.800049 6.11111111V23.8888889" id="Line-2" style="mix-blend-mode:lighten"/><path d="M351.800049 2.77777778V28.3333333" id="Line-2" style="mix-blend-mode:lighten"/><path d="M355.800049 2.77777778V28.3333333" id="Line-2" style="mix-blend-mode:lighten"/><path d="M349.800049 6.11111111V23.8888889" id="Line-2" style="mix-blend-mode:lighten"/><path d="M357.800049 6.11111111V23.8888889" id="Line-2" style="mix-blend-mode:lighten"/><path d="M347.800049 2.77777778V27.2222222" id="Line-2" style="mix-blend-mode:lighten"/><path d="M343.800049 13.8888889v2.2222222" id="Line-2" style="mix-blend-mode:lighten"/><path d="M345.800049 13.8888889v2.2222222" id="Line-2" style="mix-blend-mode:lighten"/><path d="M341.800049 7.22222222V22.7777778" id="Line-2" style="mix-blend-mode:lighten"/><path d="M341.800049 2.77777778V28.3333333" id="Line-2" style="mix-blend-mode:lighten"/><path d="M345.800049 2.77777778V28.3333333" id="Line-2" style="mix-blend-mode:lighten"/><path d="M339.800049 6.11111111V23.8888889" id="Line-2" style="mix-blend-mode:lighten"/><path d="M347.800049 6.11111111V23.8888889" id="Line-2" style="mix-blend-mode:lighten"/><path d="M337.800049 2.77777778V27.2222222" id="Line-2" style="mix-blend-mode:lighten"/><path d="M333.800049 13.8888889v2.2222222" id="Line-2" style="mix-blend-mode:lighten"/><path d="M335.800049 13.8888889v2.2222222" id="Line-2" style="mix-blend-mode:lighten"/><path d="M331.800049 7.22222222V22.7777778" id="Line-2" style="mix-blend-mode:lighten"/><path d="M383.800049 6.11111111V23.8888889" id="Line-2" style="mix-blend-mode:lighten"/><path d="M389.800049 12.7777778v4.4444444" id="Line-2" style="mix-blend-mode:lighten"/><path d="M387.800049 10.5555556v8.8888888" id="Line-2" style="mix-blend-mode:lighten"/><path d="M385.800049 8.33333333V21.6666667" id="Line-2" style="mix-blend-mode:lighten"/><path d="M393.800049 6.11111111V23.8888889" id="Line-2" style="mix-blend-mode:lighten"/><path d="M391.800049 10.5555556v8.8888888" id="Line-2" style="mix-blend-mode:lighten"/><path d="M353.800049 12.7777778v4.4444444" id="Line-2" style="mix-blend-mode:lighten"/><path d="M351.800049 10.5555556v8.8888888" id="Line-2" style="mix-blend-mode:lighten"/><path d="M349.800049 8.33333333V21.6666667" id="Line-2" style="mix-blend-mode:lighten"/><path d="M343.800049.555555556V29.4444444" id="Line-2" style="mix-blend-mode:lighten"/><path d="M365.800049 6.11111111V23.8888889" id="Line-2" style="mix-blend-mode:lighten"/><path d="M363.800049 9.44444444V20.5555556" id="Line-2" style="mix-blend-mode:lighten"/><path d="M359.800049 12.7777778v4.4444444" id="Line-2" style="mix-blend-mode:lighten"/><path d="M361.800049 12.7777778v4.4444444" id="Line-2" style="mix-blend-mode:lighten"/><path d="M357.800049 6.11111111V23.8888889" id="Line-2" style="mix-blend-mode:lighten"/><path d="M355.800049 10.5555556v8.8888888" id="Line-2" style="mix-blend-mode:lighten"/><path d="M377.800049 7.22222222V22.7777778" id="Line-2" style="mix-blend-mode:lighten"/><path d="M375.800049 11.6666667v5.5555555" id="Line-2" style="mix-blend-mode:lighten"/><path d="M373.800049 8.33333333V21.6666667" id="Line-2" style="mix-blend-mode:lighten"/><path d="M371.800049 10.5555556v8.8888888" id="Line-2" style="mix-blend-mode:lighten"/><path d="M369.800049 1.66666667V28.3333333" id="Line-2" style="mix-blend-mode:lighten"/><path d="M381.800049 7.22222222V22.7777778" id="Line-2" style="mix-blend-mode:lighten"/><path d="M379.800049 5V25" id="Line-2" style="mix-blend-mode:lighten"/><path d="M367.800049 6.11111111V23.8888889" id="Line-2" style="mix-blend-mode:lighten"/><path d="M381.800049 7.22222222V22.7777778" id="Line-2" style="mix-blend-mode:lighten"/><path d="M363.800049 12.7777778v4.4444444" id="Line-2" style="mix-blend-mode:lighten"/><path d="M361.800049 10.5555556v8.8888888" id="Line-2" style="mix-blend-mode:lighten"/><path d="M359.800049 8.33333333V21.6666667" id="Line-2" style="mix-blend-mode:lighten"/><path d="M353.800049.555555556V29.4444444" id="Line-2" style="mix-blend-mode:lighten"/><path d="M375.800049 6.11111111V23.8888889" id="Line-2" style="mix-blend-mode:lighten"/><path d="M373.800049 9.44444444V20.5555556" id="Line-2" style="mix-blend-mode:lighten"/><path d="M369.800049 12.7777778v4.4444444" id="Line-2" style="mix-blend-mode:lighten"/><path d="M371.800049 12.7777778v4.4444444" id="Line-2" style="mix-blend-mode:lighten"/><path d="M367.800049 6.11111111V23.8888889" id="Line-2" style="mix-blend-mode:lighten"/><path d="M365.800049 10.5555556v8.8888888" id="Line-2" style="mix-blend-mode:lighten"/><path d="M381.800049 10.5555556v8.8888888" id="Line-2" style="mix-blend-mode:lighten"/><path d="M379.800049 1.66666667V28.3333333" id="Line-2" style="mix-blend-mode:lighten"/><path d="M377.800049 6.11111111V23.8888889" id="Line-2" style="mix-blend-mode:lighten"/><path d="M99.8000488 2.77777778V28.3333333" id="Line-2" style="mix-blend-mode:lighten"/><path d="M103.800049 2.77777778V28.3333333" id="Line-2" style="mix-blend-mode:lighten"/><path d="M105.800049 6.11111111V23.8888889" id="Line-2" style="mix-blend-mode:lighten"/><path d="M101.800049 12.7777778v4.4444444" id="Line-2" style="mix-blend-mode:lighten"/><path d="M99.8000488 10.5555556v8.8888888" id="Line-2" style="mix-blend-mode:lighten"/><path d="M113.800049 6.11111111V23.8888889" id="Line-2" style="mix-blend-mode:lighten"/><path d="M111.800049 9.44444444V20.5555556" id="Line-2" style="mix-blend-mode:lighten"/><path d="M107.800049 12.7777778v4.4444444" id="Line-2" style="mix-blend-mode:lighten"/><path d="M109.800049 12.7777778v4.4444444" id="Line-2" style="mix-blend-mode:lighten"/><path d="M105.800049 6.11111111V23.8888889" id="Line-2" style="mix-blend-mode:lighten"/><path d="M103.800049 10.5555556v8.8888888" id="Line-2" style="mix-blend-mode:lighten"/><path d="M125.800049 7.22222222V22.7777778" id="Line-2" style="mix-blend-mode:lighten"/><path d="M123.800049 11.6666667v5.5555555" id="Line-2" style="mix-blend-mode:lighten"/><path d="M121.800049 8.33333333V21.6666667" id="Line-2" style="mix-blend-mode:lighten"/><path d="M119.800049 10.5555556v8.8888888" id="Line-2" style="mix-blend-mode:lighten"/><path d="M117.800049 1.66666667V28.3333333" id="Line-2" style="mix-blend-mode:lighten"/><path d="M129.800049 7.22222222V22.7777778" id="Line-2" style="mix-blend-mode:lighten"/><path d="M127.800049 5V25" id="Line-2" style="mix-blend-mode:lighten"/><path d="M115.800049 6.11111111V23.8888889" id="Line-2" style="mix-blend-mode:lighten"/><path d="M129.800049 7.22222222V22.7777778" id="Line-2" style="mix-blend-mode:lighten"/><path d="M111.800049 12.7777778v4.4444444" id="Line-2" style="mix-blend-mode:lighten"/><path d="M109.800049 10.5555556v8.8888888" id="Line-2" style="mix-blend-mode:lighten"/><path d="M107.800049 8.33333333V21.6666667" id="Line-2" style="mix-blend-mode:lighten"/><path d="M101.800049.555555556V29.4444444" id="Line-2" style="mix-blend-mode:lighten"/><path d="M123.800049 6.11111111V23.8888889" id="Line-2" style="mix-blend-mode:lighten"/><path d="M121.800049 9.44444444V20.5555556" id="Line-2" style="mix-blend-mode:lighten"/><path d="M117.800049 12.7777778v4.4444444" id="Line-2" style="mix-blend-mode:lighten"/><path d="M119.800049 12.7777778v4.4444444" id="Line-2" style="mix-blend-mode:lighten"/><path d="M115.800049 6.11111111V23.8888889" id="Line-2" style="mix-blend-mode:lighten"/><path d="M113.800049 10.5555556v8.8888888" id="Line-2" style="mix-blend-mode:lighten"/><path d="M129.800049 10.5555556v8.8888888" id="Line-2" style="mix-blend-mode:lighten"/><path d="M127.800049 1.66666667V28.3333333" id="Line-2" style="mix-blend-mode:lighten"/><path d="M125.800049 6.11111111V23.8888889" id="Line-2" style="mix-blend-mode:lighten"/><path d="M243.800049 12.7777778v4.4444444" id="Line-2" style="mix-blend-mode:lighten"/><path d="M241.800049 10.5555556v8.8888888" id="Line-2" style="mix-blend-mode:lighten"/><path d="M241.800049 2.77777778V28.3333333" id="Line-2" style="mix-blend-mode:lighten"/><path d="M245.800049 2.77777778V28.3333333" id="Line-2" style="mix-blend-mode:lighten"/><path d="M247.800049 6.11111111V23.8888889" id="Line-2" style="mix-blend-mode:lighten"/><path d="M99.8000488 2.77777778V28.3333333" id="Line-2" style="mix-blend-mode:lighten"/><path d="M103.800049 2.77777778V28.3333333" id="Line-2" style="mix-blend-mode:lighten"/><path d="M105.800049 6.11111111V23.8888889" id="Line-2" style="mix-blend-mode:lighten"/><path d="M101.800049 12.7777778v4.4444444" id="Line-2" style="mix-blend-mode:lighten"/><path d="M99.8000488 10.5555556v8.8888888" id="Line-2" style="mix-blend-mode:lighten"/><path d="M113.800049 6.11111111V23.8888889" id="Line-2" style="mix-blend-mode:lighten"/><path d="M111.800049 9.44444444V20.5555556" id="Line-2" style="mix-blend-mode:lighten"/><path d="M107.800049 12.7777778v4.4444444" id="Line-2" style="mix-blend-mode:lighten"/><path d="M109.800049 12.7777778v4.4444444" id="Line-2" style="mix-blend-mode:lighten"/><path d="M105.800049 6.11111111V23.8888889" id="Line-2" style="mix-blend-mode:lighten"/><path d="M103.800049 10.5555556v8.8888888" id="Line-2" style="mix-blend-mode:lighten"/><path d="M125.800049 7.22222222V22.7777778" id="Line-2" style="mix-blend-mode:lighten"/><path d="M123.800049 11.6666667v5.5555555" id="Line-2" style="mix-blend-mode:lighten"/><path d="M121.800049 8.33333333V21.6666667" id="Line-2" style="mix-blend-mode:lighten"/><path d="M119.800049 10.5555556v8.8888888" id="Line-2" style="mix-blend-mode:lighten"/><path d="M117.800049 1.66666667V28.3333333" id="Line-2" style="mix-blend-mode:lighten"/><path d="M129.800049 7.22222222V22.7777778" id="Line-2" style="mix-blend-mode:lighten"/><path d="M127.800049 5V25" id="Line-2" style="mix-blend-mode:lighten"/><path d="M115.800049 6.11111111V23.8888889" id="Line-2" style="mix-blend-mode:lighten"/><path d="M129.800049 7.22222222V22.7777778" id="Line-2" style="mix-blend-mode:lighten"/><path d="M111.800049 12.7777778v4.4444444" id="Line-2" style="mix-blend-mode:lighten"/><path d="M109.800049 10.5555556v8.8888888" id="Line-2" style="mix-blend-mode:lighten"/><path d="M107.800049 8.33333333V21.6666667" id="Line-2" style="mix-blend-mode:lighten"/><path d="M101.800049.555555556V29.4444444" id="Line-2" style="mix-blend-mode:lighten"/><path d="M123.800049 6.11111111V23.8888889" id="Line-2" style="mix-blend-mode:lighten"/><path d="M121.800049 9.44444444V20.5555556" id="Line-2" style="mix-blend-mode:lighten"/><path d="M117.800049 12.7777778v4.4444444" id="Line-2" style="mix-blend-mode:lighten"/><path d="M119.800049 12.7777778v4.4444444" id="Line-2" style="mix-blend-mode:lighten"/><path d="M115.800049 6.11111111V23.8888889" id="Line-2" style="mix-blend-mode:lighten"/><path d="M113.800049 10.5555556v8.8888888" id="Line-2" style="mix-blend-mode:lighten"/><path d="M129.800049 10.5555556v8.8888888" id="Line-2" style="mix-blend-mode:lighten"/><path d="M127.800049 1.66666667V28.3333333" id="Line-2" style="mix-blend-mode:lighten"/><path d="M125.800049 6.11111111V23.8888889" id="Line-2" style="mix-blend-mode:lighten"/><path d="M213.800049 12.7777778v4.4444444" id="Line-2" style="mix-blend-mode:lighten"/><path d="M211.800049 7.22222222V22.7777778" id="Line-2" style="mix-blend-mode:lighten"/><path d="M209.800049 5V25" id="Line-2" style="mix-blend-mode:lighten"/><path d="M217.800049 2.77777778V27.2222222" id="Line-2" style="mix-blend-mode:lighten"/><path d="M213.800049 13.8888889v2.2222222" id="Line-2" style="mix-blend-mode:lighten"/><path d="M215.800049 13.8888889v2.2222222" id="Line-2" style="mix-blend-mode:lighten"/><path d="M211.800049 7.22222222V22.7777778" id="Line-2" style="mix-blend-mode:lighten"/><path d="M217.800049 7.22222222V22.7777778" id="Line-2" style="mix-blend-mode:lighten"/><path d="M215.800049 11.6666667v5.5555555" id="Line-2" style="mix-blend-mode:lighten"/><path d="M213.800049 8.33333333V21.6666667" id="Line-2" style="mix-blend-mode:lighten"/><path d="M211.800049 10.5555556v8.8888888" id="Line-2" style="mix-blend-mode:lighten"/><path d="M209.800049 1.66666667V28.3333333" id="Line-2" style="mix-blend-mode:lighten"/><path d="M223.800049 12.7777778v4.4444444" id="Line-2" style="mix-blend-mode:lighten"/><path d="M221.800049 7.22222222V22.7777778" id="Line-2" style="mix-blend-mode:lighten"/><path d="M219.800049 5V25" id="Line-2" style="mix-blend-mode:lighten"/><path d="M231.800049 2.77777778V28.3333333" id="Line-2" style="mix-blend-mode:lighten"/><path d="M235.800049 2.77777778V28.3333333" id="Line-2" style="mix-blend-mode:lighten"/><path d="M229.800049 6.11111111V23.8888889" id="Line-2" style="mix-blend-mode:lighten"/><path d="M237.800049 6.11111111V23.8888889" id="Line-2" style="mix-blend-mode:lighten"/><path d="M227.800049 2.77777778V27.2222222" id="Line-2" style="mix-blend-mode:lighten"/><path d="M223.800049 13.8888889v2.2222222" id="Line-2" style="mix-blend-mode:lighten"/><path d="M225.800049 13.8888889v2.2222222" id="Line-2" style="mix-blend-mode:lighten"/><path d="M221.800049 7.22222222V22.7777778" id="Line-2" style="mix-blend-mode:lighten"/><path d="M239.800049 8.33333333V21.6666667" id="Line-2" style="mix-blend-mode:lighten"/><path d="M233.800049.555555556V29.4444444" id="Line-2" style="mix-blend-mode:lighten"/><path d="M239.800049 6.11111111V23.8888889" id="Line-2" style="mix-blend-mode:lighten"/><path d="M237.800049 2.77777778V27.2222222" id="Line-2" style="mix-blend-mode:lighten"/><path d="M253.800049 12.7777778v4.4444444" id="Line-2" style="mix-blend-mode:lighten"/><path d="M251.800049 10.5555556v8.8888888" id="Line-2" style="mix-blend-mode:lighten"/><path d="M249.800049 8.33333333V21.6666667" id="Line-2" style="mix-blend-mode:lighten"/><path d="M243.800049.555555556V29.4444444" id="Line-2" style="mix-blend-mode:lighten"/><path d="M265.800049 6.11111111V23.8888889" id="Line-2" style="mix-blend-mode:lighten"/><path d="M263.800049 9.44444444V20.5555556" id="Line-2" style="mix-blend-mode:lighten"/><path d="M259.800049 12.7777778v4.4444444" id="Line-2" style="mix-blend-mode:lighten"/><path d="M261.800049 12.7777778v4.4444444" id="Line-2" style="mix-blend-mode:lighten"/><path d="M257.800049 6.11111111V23.8888889" id="Line-2" style="mix-blend-mode:lighten"/><path d="M255.800049 10.5555556v8.8888888" id="Line-2" style="mix-blend-mode:lighten"/><path d="M277.800049 7.22222222V22.7777778" id="Line-2" style="mix-blend-mode:lighten"/><path d="M275.800049 11.6666667v5.5555555" id="Line-2" style="mix-blend-mode:lighten"/><path d="M273.800049 8.33333333V21.6666667" id="Line-2" style="mix-blend-mode:lighten"/><path d="M271.800049 10.5555556v8.8888888" id="Line-2" style="mix-blend-mode:lighten"/><path d="M269.800049 1.66666667V28.3333333" id="Line-2" style="mix-blend-mode:lighten"/><path d="M283.800049 12.7777778v4.4444444" id="Line-2" style="mix-blend-mode:lighten"/><path d="M281.800049 7.22222222V22.7777778" id="Line-2" style="mix-blend-mode:lighten"/><path d="M279.800049 5V25" id="Line-2" style="mix-blend-mode:lighten"/><path d="M267.800049 6.11111111V23.8888889" id="Line-2" style="mix-blend-mode:lighten"/><path d="M291.800049 2.77777778V28.3333333" id="Line-2" style="mix-blend-mode:lighten"/><path d="M289.800049 6.11111111V23.8888889" id="Line-2" style="mix-blend-mode:lighten"/><path d="M287.800049 2.77777778V27.2222222" id="Line-2" style="mix-blend-mode:lighten"/><path d="M283.800049 13.8888889v2.2222222" id="Line-2" style="mix-blend-mode:lighten"/><path d="M285.800049 13.8888889v2.2222222" id="Line-2" style="mix-blend-mode:lighten"/><path d="M281.800049 7.22222222V22.7777778" id="Line-2" style="mix-blend-mode:lighten"/><path d="M293.800049.555555556V29.4444444" id="Line-2" style="mix-blend-mode:lighten"/><path d="M255.800049 6.11111111V23.8888889" id="Line-2" style="mix-blend-mode:lighten"/><path d="M253.800049 9.44444444V20.5555556" id="Line-2" style="mix-blend-mode:lighten"/><path d="M249.800049 12.7777778v4.4444444" id="Line-2" style="mix-blend-mode:lighten"/><path d="M251.800049 12.7777778v4.4444444" id="Line-2" style="mix-blend-mode:lighten"/><path d="M247.800049 6.11111111V23.8888889" id="Line-2" style="mix-blend-mode:lighten"/><path d="M245.800049 10.5555556v8.8888888" id="Line-2" style="mix-blend-mode:lighten"/><path d="M267.800049 7.22222222V22.7777778" id="Line-2" style="mix-blend-mode:lighten"/><path d="M265.800049 11.6666667v5.5555555" id="Line-2" style="mix-blend-mode:lighten"/><path d="M263.800049 8.33333333V21.6666667" id="Line-2" style="mix-blend-mode:lighten"/><path d="M261.800049 10.5555556v8.8888888" id="Line-2" style="mix-blend-mode:lighten"/><path d="M259.800049 1.66666667V28.3333333" id="Line-2" style="mix-blend-mode:lighten"/><path d="M273.800049 12.7777778v4.4444444" id="Line-2" style="mix-blend-mode:lighten"/><path d="M271.800049 7.22222222V22.7777778" id="Line-2" style="mix-blend-mode:lighten"/><path d="M269.800049 5V25" id="Line-2" style="mix-blend-mode:lighten"/><path d="M257.800049 6.11111111V23.8888889" id="Line-2" style="mix-blend-mode:lighten"/><path d="M207.800049 2.77777778V28.3333333" id="Line-2" style="mix-blend-mode:lighten"/><path d="M185.199951 2.77777778V28.3333333" id="Line-2" style="mix-blend-mode:lighten" transform="translate(185.199951, 15.555556) scale(-1, 1) translate(-185.199951, -15.555556)"/><path d="M187.199951 6.11111111V23.8888889" id="Line-2" style="mix-blend-mode:lighten" transform="translate(187.199951, 15.000000) scale(-1, 1) translate(-187.199951, -15.000000)"/><path d="M189.199951 2.77777778V27.2222222" id="Line-2" style="mix-blend-mode:lighten" transform="translate(189.199951, 15.000000) scale(-1, 1) translate(-189.199951, -15.000000)"/><path d="M193.199951 13.8888889v2.2222222" id="Line-2" style="mix-blend-mode:lighten" transform="translate(193.199951, 15.000000) scale(-1, 1) translate(-193.199951, -15.000000)"/><path d="M191.199951 13.8888889v2.2222222" id="Line-2" style="mix-blend-mode:lighten" transform="translate(191.199951, 15.000000) scale(-1, 1) translate(-191.199951, -15.000000)"/><path d="M195.199951 7.22222222V22.7777778" id="Line-2" style="mix-blend-mode:lighten" transform="translate(195.199951, 15.000000) scale(-1, 1) translate(-195.199951, -15.000000)"/><path d="M183.199951.555555556V29.4444444" id="Line-2" style="mix-blend-mode:lighten" transform="translate(183.199951, 15.000000) scale(-1, 1) translate(-183.199951, -15.000000)"/><path d="M203.199951 12.7777778v4.4444444" id="Line-2" style="mix-blend-mode:lighten" transform="translate(203.199951, 15.000000) scale(-1, 1) translate(-203.199951, -15.000000)"/><path d="M205.199951 7.22222222V22.7777778" id="Line-2" style="mix-blend-mode:lighten" transform="translate(205.199951, 15.000000) scale(-1, 1) translate(-205.199951, -15.000000)"/><path d="M195.199951 2.77777778V28.3333333" id="Line-2" style="mix-blend-mode:lighten" transform="translate(195.199951, 15.555556) scale(-1, 1) translate(-195.199951, -15.555556)"/><path d="M197.199951 6.11111111V23.8888889" id="Line-2" style="mix-blend-mode:lighten" transform="translate(197.199951, 15.000000) scale(-1, 1) translate(-197.199951, -15.000000)"/><path d="M199.199951 2.77777778V27.2222222" id="Line-2" style="mix-blend-mode:lighten" transform="translate(199.199951, 15.000000) scale(-1, 1) translate(-199.199951, -15.000000)"/><path d="M203.199951 13.8888889v2.2222222" id="Line-2" style="mix-blend-mode:lighten" transform="translate(203.199951, 15.000000) scale(-1, 1) translate(-203.199951, -15.000000)"/><path d="M201.199951 13.8888889v2.2222222" id="Line-2" style="mix-blend-mode:lighten" transform="translate(201.199951, 15.000000) scale(-1, 1) translate(-201.199951, -15.000000)"/><path d="M205.199951 7.22222222V22.7777778" id="Line-2" style="mix-blend-mode:lighten" transform="translate(205.199951, 15.000000) scale(-1, 1) translate(-205.199951, -15.000000)"/><path d="M193.199951.555555556V29.4444444" id="Line-2" style="mix-blend-mode:lighten" transform="translate(193.199951, 15.000000) scale(-1, 1) translate(-193.199951, -15.000000)"/><path d="M177.199951 6.11111111V23.8888889" id="Line-2" style="mix-blend-mode:lighten"/><path d="M179.199951 9.44444444V20.5555556" id="Line-2" style="mix-blend-mode:lighten"/><path d="M181.199951 12.7777778v4.4444444" id="Line-2" style="mix-blend-mode:lighten"/><path d="M175.199951 12.7777778v4.4444444" id="Line-2" style="mix-blend-mode:lighten"/><path d="M171.199951 6.11111111V23.8888889" id="Line-2" style="mix-blend-mode:lighten"/><path d="M173.199951 10.5555556v8.8888888" id="Line-2" style="mix-blend-mode:lighten"/><path d="M167.199951 12.7777778v4.4444444" id="Line-2" style="mix-blend-mode:lighten"/><path d="M169.199951 10.5555556v8.8888888" id="Line-2" style="mix-blend-mode:lighten"/><path d="M155.199951 6.11111111V23.8888889" id="Line-2" style="mix-blend-mode:lighten"/><path d="M157.199951 9.44444444V20.5555556" id="Line-2" style="mix-blend-mode:lighten"/><path d="M161.199951 12.7777778v4.4444444" id="Line-2" style="mix-blend-mode:lighten"/><path d="M159.199951 12.7777778v4.4444444" id="Line-2" style="mix-blend-mode:lighten"/><path d="M163.199951 6.11111111V23.8888889" id="Line-2" style="mix-blend-mode:lighten"/><path d="M165.199951 10.5555556v8.8888888" id="Line-2" style="mix-blend-mode:lighten"/><path d="M143.199951 7.22222222V22.7777778" id="Line-2" style="mix-blend-mode:lighten"/><path d="M145.199951 11.6666667v5.5555555" id="Line-2" style="mix-blend-mode:lighten"/><path d="M147.199951 8.33333333V21.6666667" id="Line-2" style="mix-blend-mode:lighten"/><path d="M149.199951 10.5555556v8.8888888" id="Line-2" style="mix-blend-mode:lighten"/><path d="M151.199951 1.66666667V28.3333333" id="Line-2" style="mix-blend-mode:lighten"/><path d="M141.199951 5V25" id="Line-2" style="mix-blend-mode:lighten"/><path d="M153.199951 6.11111111V23.8888889" id="Line-2" style="mix-blend-mode:lighten"/><path d="M165.199951 6.11111111V23.8888889" id="Line-2" style="mix-blend-mode:lighten"/><path d="M167.199951 9.44444444V20.5555556" id="Line-2" style="mix-blend-mode:lighten"/><path d="M169.199951 12.7777778v4.4444444" id="Line-2" style="mix-blend-mode:lighten"/><path d="M153.199951 7.22222222V22.7777778" id="Line-2" style="mix-blend-mode:lighten"/><path d="M155.199951 11.6666667v5.5555555" id="Line-2" style="mix-blend-mode:lighten"/><path d="M157.199951 8.33333333V21.6666667" id="Line-2" style="mix-blend-mode:lighten"/><path d="M159.199951 10.5555556v8.8888888" id="Line-2" style="mix-blend-mode:lighten"/><path d="M161.199951 1.66666667V28.3333333" id="Line-2" style="mix-blend-mode:lighten"/><path d="M147.199951 12.7777778v4.4444444" id="Line-2" style="mix-blend-mode:lighten"/><path d="M149.199951 7.22222222V22.7777778" id="Line-2" style="mix-blend-mode:lighten"/><path d="M151.199951 5V25" id="Line-2" style="mix-blend-mode:lighten"/><path d="M163.199951 6.11111111V23.8888889" id="Line-2" style="mix-blend-mode:lighten"/></g></g></svg>