<?xml version="1.0" encoding="UTF-8"?>
<svg width="394px" height="30px" viewBox="0 0 394 30" version="1.1" xmlns="http://www.w3.org/2000/svg" xmlns:xlink="http://www.w3.org/1999/xlink">
    <!-- Generator: Sketch 48.2 (47327) - http://www.bohemiancoding.com/sketch -->
    <title>Group 37</title>
    <desc>Created with Sketch.</desc>
    <defs></defs>
    <g id="Embedded-player" stroke="none" stroke-width="1" fill="none" fill-rule="evenodd" stroke-linecap="square">
        <g id="Group-37" transform="translate(-1.000000, 0.000000)" stroke="#868686">
            <path d="M11.8000488,2.77777778 L11.8000488,28.3333333" id="Line-2" style="mix-blend-mode: lighten;"></path>
            <path d="M15.8000488,2.77777778 L15.8000488,28.3333333" id="Line-2" style="mix-blend-mode: lighten;"></path>
            <path d="M9.80004883,6.11111111 L9.80004883,23.8888889" id="Line-2" style="mix-blend-mode: lighten;"></path>
            <path d="M17.8000488,6.11111111 L17.8000488,23.8888889" id="Line-2" style="mix-blend-mode: lighten;"></path>
            <path d="M7.80004883,2.77777778 L7.80004883,27.2222222" id="Line-2" style="mix-blend-mode: lighten;"></path>
            <path d="M3.80004883,13.8888889 L3.80004883,16.1111111" id="Line-2" style="mix-blend-mode: lighten;"></path>
            <path d="M5.80004883,13.8888889 L5.80004883,16.1111111" id="Line-2" style="mix-blend-mode: lighten;"></path>
            <path d="M1.80004883,7.22222222 L1.80004883,22.7777778" id="Line-2" style="mix-blend-mode: lighten;"></path>
            <path d="M23.8000488,12.7777778 L23.8000488,17.2222222" id="Line-2" style="mix-blend-mode: lighten;"></path>
            <path d="M21.8000488,10.5555556 L21.8000488,19.4444444" id="Line-2" style="mix-blend-mode: lighten;"></path>
            <path d="M19.8000488,8.33333333 L19.8000488,21.6666667" id="Line-2" style="mix-blend-mode: lighten;"></path>
            <path d="M13.8000488,0.555555556 L13.8000488,29.4444444" id="Line-2" style="mix-blend-mode: lighten;"></path>
            <path d="M35.8000488,6.11111111 L35.8000488,23.8888889" id="Line-2" style="mix-blend-mode: lighten;"></path>
            <path d="M33.8000488,9.44444444 L33.8000488,20.5555556" id="Line-2" style="mix-blend-mode: lighten;"></path>
            <path d="M29.8000488,12.7777778 L29.8000488,17.2222222" id="Line-2" style="mix-blend-mode: lighten;"></path>
            <path d="M31.8000488,12.7777778 L31.8000488,17.2222222" id="Line-2" style="mix-blend-mode: lighten;"></path>
            <path d="M27.8000488,6.11111111 L27.8000488,23.8888889" id="Line-2" style="mix-blend-mode: lighten;"></path>
            <path d="M25.8000488,10.5555556 L25.8000488,19.4444444" id="Line-2" style="mix-blend-mode: lighten;"></path>
            <path d="M47.8000488,7.22222222 L47.8000488,22.7777778" id="Line-2" style="mix-blend-mode: lighten;"></path>
            <path d="M45.8000488,11.6666667 L45.8000488,17.2222222" id="Line-2" style="mix-blend-mode: lighten;"></path>
            <path d="M43.8000488,8.33333333 L43.8000488,21.6666667" id="Line-2" style="mix-blend-mode: lighten;"></path>
            <path d="M41.8000488,10.5555556 L41.8000488,19.4444444" id="Line-2" style="mix-blend-mode: lighten;"></path>
            <path d="M39.8000488,1.66666667 L39.8000488,28.3333333" id="Line-2" style="mix-blend-mode: lighten;"></path>
            <path d="M53.8000488,12.7777778 L53.8000488,17.2222222" id="Line-2" style="mix-blend-mode: lighten;"></path>
            <path d="M51.8000488,7.22222222 L51.8000488,22.7777778" id="Line-2" style="mix-blend-mode: lighten;"></path>
            <path d="M49.8000488,5 L49.8000488,25" id="Line-2" style="mix-blend-mode: lighten;"></path>
            <path d="M37.8000488,6.11111111 L37.8000488,23.8888889" id="Line-2" style="mix-blend-mode: lighten;"></path>
            <path d="M61.8000488,2.77777778 L61.8000488,28.3333333" id="Line-2" style="mix-blend-mode: lighten;"></path>
            <path d="M65.8000488,2.77777778 L65.8000488,28.3333333" id="Line-2" style="mix-blend-mode: lighten;"></path>
            <path d="M59.8000488,6.11111111 L59.8000488,23.8888889" id="Line-2" style="mix-blend-mode: lighten;"></path>
            <path d="M67.8000488,6.11111111 L67.8000488,23.8888889" id="Line-2" style="mix-blend-mode: lighten;"></path>
            <path d="M57.8000488,2.77777778 L57.8000488,27.2222222" id="Line-2" style="mix-blend-mode: lighten;"></path>
            <path d="M53.8000488,13.8888889 L53.8000488,16.1111111" id="Line-2" style="mix-blend-mode: lighten;"></path>
            <path d="M55.8000488,13.8888889 L55.8000488,16.1111111" id="Line-2" style="mix-blend-mode: lighten;"></path>
            <path d="M51.8000488,7.22222222 L51.8000488,22.7777778" id="Line-2" style="mix-blend-mode: lighten;"></path>
            <path d="M51.8000488,2.77777778 L51.8000488,28.3333333" id="Line-2" style="mix-blend-mode: lighten;"></path>
            <path d="M55.8000488,2.77777778 L55.8000488,28.3333333" id="Line-2" style="mix-blend-mode: lighten;"></path>
            <path d="M49.8000488,6.11111111 L49.8000488,23.8888889" id="Line-2" style="mix-blend-mode: lighten;"></path>
            <path d="M57.8000488,6.11111111 L57.8000488,23.8888889" id="Line-2" style="mix-blend-mode: lighten;"></path>
            <path d="M47.8000488,2.77777778 L47.8000488,27.2222222" id="Line-2" style="mix-blend-mode: lighten;"></path>
            <path d="M43.8000488,13.8888889 L43.8000488,16.1111111" id="Line-2" style="mix-blend-mode: lighten;"></path>
            <path d="M45.8000488,13.8888889 L45.8000488,16.1111111" id="Line-2" style="mix-blend-mode: lighten;"></path>
            <path d="M41.8000488,7.22222222 L41.8000488,22.7777778" id="Line-2" style="mix-blend-mode: lighten;"></path>
            <path d="M63.8000488,12.7777778 L63.8000488,17.2222222" id="Line-2" style="mix-blend-mode: lighten;"></path>
            <path d="M61.8000488,10.5555556 L61.8000488,19.4444444" id="Line-2" style="mix-blend-mode: lighten;"></path>
            <path d="M59.8000488,8.33333333 L59.8000488,21.6666667" id="Line-2" style="mix-blend-mode: lighten;"></path>
            <path d="M53.8000488,0.555555556 L53.8000488,29.4444444" id="Line-2" style="mix-blend-mode: lighten;"></path>
            <path d="M75.8000488,6.11111111 L75.8000488,23.8888889" id="Line-2" style="mix-blend-mode: lighten;"></path>
            <path d="M73.8000488,9.44444444 L73.8000488,20.5555556" id="Line-2" style="mix-blend-mode: lighten;"></path>
            <path d="M69.8000488,12.7777778 L69.8000488,17.2222222" id="Line-2" style="mix-blend-mode: lighten;"></path>
            <path d="M71.8000488,12.7777778 L71.8000488,17.2222222" id="Line-2" style="mix-blend-mode: lighten;"></path>
            <path d="M67.8000488,6.11111111 L67.8000488,23.8888889" id="Line-2" style="mix-blend-mode: lighten;"></path>
            <path d="M65.8000488,10.5555556 L65.8000488,19.4444444" id="Line-2" style="mix-blend-mode: lighten;"></path>
            <path d="M87.8000488,7.22222222 L87.8000488,22.7777778" id="Line-2" style="mix-blend-mode: lighten;"></path>
            <path d="M85.8000488,11.6666667 L85.8000488,17.2222222" id="Line-2" style="mix-blend-mode: lighten;"></path>
            <path d="M83.8000488,8.33333333 L83.8000488,21.6666667" id="Line-2" style="mix-blend-mode: lighten;"></path>
            <path d="M81.8000488,10.5555556 L81.8000488,19.4444444" id="Line-2" style="mix-blend-mode: lighten;"></path>
            <path d="M79.8000488,1.66666667 L79.8000488,28.3333333" id="Line-2" style="mix-blend-mode: lighten;"></path>
            <path d="M93.8000488,12.7777778 L93.8000488,17.2222222" id="Line-2" style="mix-blend-mode: lighten;"></path>
            <path d="M91.8000488,7.22222222 L91.8000488,22.7777778" id="Line-2" style="mix-blend-mode: lighten;"></path>
            <path d="M89.8000488,5 L89.8000488,25" id="Line-2" style="mix-blend-mode: lighten;"></path>
            <path d="M77.8000488,6.11111111 L77.8000488,23.8888889" id="Line-2" style="mix-blend-mode: lighten;"></path>
            <path d="M97.8000488,2.77777778 L97.8000488,27.2222222" id="Line-2" style="mix-blend-mode: lighten;"></path>
            <path d="M93.8000488,13.8888889 L93.8000488,16.1111111" id="Line-2" style="mix-blend-mode: lighten;"></path>
            <path d="M95.8000488,13.8888889 L95.8000488,16.1111111" id="Line-2" style="mix-blend-mode: lighten;"></path>
            <path d="M91.8000488,7.22222222 L91.8000488,22.7777778" id="Line-2" style="mix-blend-mode: lighten;"></path>
            <path d="M73.8000488,12.7777778 L73.8000488,17.2222222" id="Line-2" style="mix-blend-mode: lighten;"></path>
            <path d="M71.8000488,10.5555556 L71.8000488,19.4444444" id="Line-2" style="mix-blend-mode: lighten;"></path>
            <path d="M69.8000488,8.33333333 L69.8000488,21.6666667" id="Line-2" style="mix-blend-mode: lighten;"></path>
            <path d="M63.8000488,0.555555556 L63.8000488,29.4444444" id="Line-2" style="mix-blend-mode: lighten;"></path>
            <path d="M85.8000488,6.11111111 L85.8000488,23.8888889" id="Line-2" style="mix-blend-mode: lighten;"></path>
            <path d="M83.8000488,9.44444444 L83.8000488,20.5555556" id="Line-2" style="mix-blend-mode: lighten;"></path>
            <path d="M79.8000488,12.7777778 L79.8000488,17.2222222" id="Line-2" style="mix-blend-mode: lighten;"></path>
            <path d="M81.8000488,12.7777778 L81.8000488,17.2222222" id="Line-2" style="mix-blend-mode: lighten;"></path>
            <path d="M77.8000488,6.11111111 L77.8000488,23.8888889" id="Line-2" style="mix-blend-mode: lighten;"></path>
            <path d="M75.8000488,10.5555556 L75.8000488,19.4444444" id="Line-2" style="mix-blend-mode: lighten;"></path>
            <path d="M97.8000488,7.22222222 L97.8000488,22.7777778" id="Line-2" style="mix-blend-mode: lighten;"></path>
            <path d="M95.8000488,11.6666667 L95.8000488,17.2222222" id="Line-2" style="mix-blend-mode: lighten;"></path>
            <path d="M93.8000488,8.33333333 L93.8000488,21.6666667" id="Line-2" style="mix-blend-mode: lighten;"></path>
            <path d="M91.8000488,10.5555556 L91.8000488,19.4444444" id="Line-2" style="mix-blend-mode: lighten;"></path>
            <path d="M89.8000488,1.66666667 L89.8000488,28.3333333" id="Line-2" style="mix-blend-mode: lighten;"></path>
            <path d="M87.8000488,6.11111111 L87.8000488,23.8888889" id="Line-2" style="mix-blend-mode: lighten;"></path>
            <path d="M301.800049,2.77777778 L301.800049,28.3333333" id="Line-2" style="mix-blend-mode: lighten;"></path>
            <path d="M305.800049,2.77777778 L305.800049,28.3333333" id="Line-2" style="mix-blend-mode: lighten;"></path>
            <path d="M299.800049,6.11111111 L299.800049,23.8888889" id="Line-2" style="mix-blend-mode: lighten;"></path>
            <path d="M307.800049,6.11111111 L307.800049,23.8888889" id="Line-2" style="mix-blend-mode: lighten;"></path>
            <path d="M297.800049,2.77777778 L297.800049,27.2222222" id="Line-2" style="mix-blend-mode: lighten;"></path>
            <path d="M293.800049,13.8888889 L293.800049,16.1111111" id="Line-2" style="mix-blend-mode: lighten;"></path>
            <path d="M295.800049,13.8888889 L295.800049,16.1111111" id="Line-2" style="mix-blend-mode: lighten;"></path>
            <path d="M291.800049,7.22222222 L291.800049,22.7777778" id="Line-2" style="mix-blend-mode: lighten;"></path>
            <path d="M313.800049,12.7777778 L313.800049,17.2222222" id="Line-2" style="mix-blend-mode: lighten;"></path>
            <path d="M311.800049,10.5555556 L311.800049,19.4444444" id="Line-2" style="mix-blend-mode: lighten;"></path>
            <path d="M309.800049,8.33333333 L309.800049,21.6666667" id="Line-2" style="mix-blend-mode: lighten;"></path>
            <path d="M303.800049,0.555555556 L303.800049,29.4444444" id="Line-2" style="mix-blend-mode: lighten;"></path>
            <path d="M325.800049,6.11111111 L325.800049,23.8888889" id="Line-2" style="mix-blend-mode: lighten;"></path>
            <path d="M323.800049,9.44444444 L323.800049,20.5555556" id="Line-2" style="mix-blend-mode: lighten;"></path>
            <path d="M319.800049,12.7777778 L319.800049,17.2222222" id="Line-2" style="mix-blend-mode: lighten;"></path>
            <path d="M321.800049,12.7777778 L321.800049,17.2222222" id="Line-2" style="mix-blend-mode: lighten;"></path>
            <path d="M317.800049,6.11111111 L317.800049,23.8888889" id="Line-2" style="mix-blend-mode: lighten;"></path>
            <path d="M315.800049,10.5555556 L315.800049,19.4444444" id="Line-2" style="mix-blend-mode: lighten;"></path>
            <path d="M133.800049,12.7777778 L133.800049,17.2222222" id="Line-2" style="mix-blend-mode: lighten;"></path>
            <path d="M131.800049,10.5555556 L131.800049,19.4444444" id="Line-2" style="mix-blend-mode: lighten;"></path>
            <path d="M139.800049,12.7777778 L139.800049,17.2222222" id="Line-2" style="mix-blend-mode: lighten;"></path>
            <path d="M137.800049,6.11111111 L137.800049,23.8888889" id="Line-2" style="mix-blend-mode: lighten;"></path>
            <path d="M135.800049,10.5555556 L135.800049,19.4444444" id="Line-2" style="mix-blend-mode: lighten;"></path>
            <path d="M337.800049,7.22222222 L337.800049,22.7777778" id="Line-2" style="mix-blend-mode: lighten;"></path>
            <path d="M335.800049,11.6666667 L335.800049,17.2222222" id="Line-2" style="mix-blend-mode: lighten;"></path>
            <path d="M333.800049,8.33333333 L333.800049,21.6666667" id="Line-2" style="mix-blend-mode: lighten;"></path>
            <path d="M331.800049,10.5555556 L331.800049,19.4444444" id="Line-2" style="mix-blend-mode: lighten;"></path>
            <path d="M329.800049,1.66666667 L329.800049,28.3333333" id="Line-2" style="mix-blend-mode: lighten;"></path>
            <path d="M343.800049,12.7777778 L343.800049,17.2222222" id="Line-2" style="mix-blend-mode: lighten;"></path>
            <path d="M341.800049,7.22222222 L341.800049,22.7777778" id="Line-2" style="mix-blend-mode: lighten;"></path>
            <path d="M339.800049,5 L339.800049,25" id="Line-2" style="mix-blend-mode: lighten;"></path>
            <path d="M327.800049,6.11111111 L327.800049,23.8888889" id="Line-2" style="mix-blend-mode: lighten;"></path>
            <path d="M351.800049,2.77777778 L351.800049,28.3333333" id="Line-2" style="mix-blend-mode: lighten;"></path>
            <path d="M355.800049,2.77777778 L355.800049,28.3333333" id="Line-2" style="mix-blend-mode: lighten;"></path>
            <path d="M349.800049,6.11111111 L349.800049,23.8888889" id="Line-2" style="mix-blend-mode: lighten;"></path>
            <path d="M357.800049,6.11111111 L357.800049,23.8888889" id="Line-2" style="mix-blend-mode: lighten;"></path>
            <path d="M347.800049,2.77777778 L347.800049,27.2222222" id="Line-2" style="mix-blend-mode: lighten;"></path>
            <path d="M343.800049,13.8888889 L343.800049,16.1111111" id="Line-2" style="mix-blend-mode: lighten;"></path>
            <path d="M345.800049,13.8888889 L345.800049,16.1111111" id="Line-2" style="mix-blend-mode: lighten;"></path>
            <path d="M341.800049,7.22222222 L341.800049,22.7777778" id="Line-2" style="mix-blend-mode: lighten;"></path>
            <path d="M341.800049,2.77777778 L341.800049,28.3333333" id="Line-2" style="mix-blend-mode: lighten;"></path>
            <path d="M345.800049,2.77777778 L345.800049,28.3333333" id="Line-2" style="mix-blend-mode: lighten;"></path>
            <path d="M339.800049,6.11111111 L339.800049,23.8888889" id="Line-2" style="mix-blend-mode: lighten;"></path>
            <path d="M347.800049,6.11111111 L347.800049,23.8888889" id="Line-2" style="mix-blend-mode: lighten;"></path>
            <path d="M337.800049,2.77777778 L337.800049,27.2222222" id="Line-2" style="mix-blend-mode: lighten;"></path>
            <path d="M333.800049,13.8888889 L333.800049,16.1111111" id="Line-2" style="mix-blend-mode: lighten;"></path>
            <path d="M335.800049,13.8888889 L335.800049,16.1111111" id="Line-2" style="mix-blend-mode: lighten;"></path>
            <path d="M331.800049,7.22222222 L331.800049,22.7777778" id="Line-2" style="mix-blend-mode: lighten;"></path>
            <path d="M383.800049,6.11111111 L383.800049,23.8888889" id="Line-2" style="mix-blend-mode: lighten;"></path>
            <path d="M389.800049,12.7777778 L389.800049,17.2222222" id="Line-2" style="mix-blend-mode: lighten;"></path>
            <path d="M387.800049,10.5555556 L387.800049,19.4444444" id="Line-2" style="mix-blend-mode: lighten;"></path>
            <path d="M385.800049,8.33333333 L385.800049,21.6666667" id="Line-2" style="mix-blend-mode: lighten;"></path>
            <path d="M393.800049,6.11111111 L393.800049,23.8888889" id="Line-2" style="mix-blend-mode: lighten;"></path>
            <path d="M391.800049,10.5555556 L391.800049,19.4444444" id="Line-2" style="mix-blend-mode: lighten;"></path>
            <path d="M353.800049,12.7777778 L353.800049,17.2222222" id="Line-2" style="mix-blend-mode: lighten;"></path>
            <path d="M351.800049,10.5555556 L351.800049,19.4444444" id="Line-2" style="mix-blend-mode: lighten;"></path>
            <path d="M349.800049,8.33333333 L349.800049,21.6666667" id="Line-2" style="mix-blend-mode: lighten;"></path>
            <path d="M343.800049,0.555555556 L343.800049,29.4444444" id="Line-2" style="mix-blend-mode: lighten;"></path>
            <path d="M365.800049,6.11111111 L365.800049,23.8888889" id="Line-2" style="mix-blend-mode: lighten;"></path>
            <path d="M363.800049,9.44444444 L363.800049,20.5555556" id="Line-2" style="mix-blend-mode: lighten;"></path>
            <path d="M359.800049,12.7777778 L359.800049,17.2222222" id="Line-2" style="mix-blend-mode: lighten;"></path>
            <path d="M361.800049,12.7777778 L361.800049,17.2222222" id="Line-2" style="mix-blend-mode: lighten;"></path>
            <path d="M357.800049,6.11111111 L357.800049,23.8888889" id="Line-2" style="mix-blend-mode: lighten;"></path>
            <path d="M355.800049,10.5555556 L355.800049,19.4444444" id="Line-2" style="mix-blend-mode: lighten;"></path>
            <path d="M377.800049,7.22222222 L377.800049,22.7777778" id="Line-2" style="mix-blend-mode: lighten;"></path>
            <path d="M375.800049,11.6666667 L375.800049,17.2222222" id="Line-2" style="mix-blend-mode: lighten;"></path>
            <path d="M373.800049,8.33333333 L373.800049,21.6666667" id="Line-2" style="mix-blend-mode: lighten;"></path>
            <path d="M371.800049,10.5555556 L371.800049,19.4444444" id="Line-2" style="mix-blend-mode: lighten;"></path>
            <path d="M369.800049,1.66666667 L369.800049,28.3333333" id="Line-2" style="mix-blend-mode: lighten;"></path>
            <path d="M381.800049,7.22222222 L381.800049,22.7777778" id="Line-2" style="mix-blend-mode: lighten;"></path>
            <path d="M379.800049,5 L379.800049,25" id="Line-2" style="mix-blend-mode: lighten;"></path>
            <path d="M367.800049,6.11111111 L367.800049,23.8888889" id="Line-2" style="mix-blend-mode: lighten;"></path>
            <path d="M381.800049,7.22222222 L381.800049,22.7777778" id="Line-2" style="mix-blend-mode: lighten;"></path>
            <path d="M363.800049,12.7777778 L363.800049,17.2222222" id="Line-2" style="mix-blend-mode: lighten;"></path>
            <path d="M361.800049,10.5555556 L361.800049,19.4444444" id="Line-2" style="mix-blend-mode: lighten;"></path>
            <path d="M359.800049,8.33333333 L359.800049,21.6666667" id="Line-2" style="mix-blend-mode: lighten;"></path>
            <path d="M353.800049,0.555555556 L353.800049,29.4444444" id="Line-2" style="mix-blend-mode: lighten;"></path>
            <path d="M375.800049,6.11111111 L375.800049,23.8888889" id="Line-2" style="mix-blend-mode: lighten;"></path>
            <path d="M373.800049,9.44444444 L373.800049,20.5555556" id="Line-2" style="mix-blend-mode: lighten;"></path>
            <path d="M369.800049,12.7777778 L369.800049,17.2222222" id="Line-2" style="mix-blend-mode: lighten;"></path>
            <path d="M371.800049,12.7777778 L371.800049,17.2222222" id="Line-2" style="mix-blend-mode: lighten;"></path>
            <path d="M367.800049,6.11111111 L367.800049,23.8888889" id="Line-2" style="mix-blend-mode: lighten;"></path>
            <path d="M365.800049,10.5555556 L365.800049,19.4444444" id="Line-2" style="mix-blend-mode: lighten;"></path>
            <path d="M381.800049,10.5555556 L381.800049,19.4444444" id="Line-2" style="mix-blend-mode: lighten;"></path>
            <path d="M379.800049,1.66666667 L379.800049,28.3333333" id="Line-2" style="mix-blend-mode: lighten;"></path>
            <path d="M377.800049,6.11111111 L377.800049,23.8888889" id="Line-2" style="mix-blend-mode: lighten;"></path>
            <path d="M99.8000488,2.77777778 L99.8000488,28.3333333" id="Line-2" style="mix-blend-mode: lighten;"></path>
            <path d="M103.800049,2.77777778 L103.800049,28.3333333" id="Line-2" style="mix-blend-mode: lighten;"></path>
            <path d="M105.800049,6.11111111 L105.800049,23.8888889" id="Line-2" style="mix-blend-mode: lighten;"></path>
            <path d="M101.800049,12.7777778 L101.800049,17.2222222" id="Line-2" style="mix-blend-mode: lighten;"></path>
            <path d="M99.8000488,10.5555556 L99.8000488,19.4444444" id="Line-2" style="mix-blend-mode: lighten;"></path>
            <path d="M113.800049,6.11111111 L113.800049,23.8888889" id="Line-2" style="mix-blend-mode: lighten;"></path>
            <path d="M111.800049,9.44444444 L111.800049,20.5555556" id="Line-2" style="mix-blend-mode: lighten;"></path>
            <path d="M107.800049,12.7777778 L107.800049,17.2222222" id="Line-2" style="mix-blend-mode: lighten;"></path>
            <path d="M109.800049,12.7777778 L109.800049,17.2222222" id="Line-2" style="mix-blend-mode: lighten;"></path>
            <path d="M105.800049,6.11111111 L105.800049,23.8888889" id="Line-2" style="mix-blend-mode: lighten;"></path>
            <path d="M103.800049,10.5555556 L103.800049,19.4444444" id="Line-2" style="mix-blend-mode: lighten;"></path>
            <path d="M125.800049,7.22222222 L125.800049,22.7777778" id="Line-2" style="mix-blend-mode: lighten;"></path>
            <path d="M123.800049,11.6666667 L123.800049,17.2222222" id="Line-2" style="mix-blend-mode: lighten;"></path>
            <path d="M121.800049,8.33333333 L121.800049,21.6666667" id="Line-2" style="mix-blend-mode: lighten;"></path>
            <path d="M119.800049,10.5555556 L119.800049,19.4444444" id="Line-2" style="mix-blend-mode: lighten;"></path>
            <path d="M117.800049,1.66666667 L117.800049,28.3333333" id="Line-2" style="mix-blend-mode: lighten;"></path>
            <path d="M129.800049,7.22222222 L129.800049,22.7777778" id="Line-2" style="mix-blend-mode: lighten;"></path>
            <path d="M127.800049,5 L127.800049,25" id="Line-2" style="mix-blend-mode: lighten;"></path>
            <path d="M115.800049,6.11111111 L115.800049,23.8888889" id="Line-2" style="mix-blend-mode: lighten;"></path>
            <path d="M129.800049,7.22222222 L129.800049,22.7777778" id="Line-2" style="mix-blend-mode: lighten;"></path>
            <path d="M111.800049,12.7777778 L111.800049,17.2222222" id="Line-2" style="mix-blend-mode: lighten;"></path>
            <path d="M109.800049,10.5555556 L109.800049,19.4444444" id="Line-2" style="mix-blend-mode: lighten;"></path>
            <path d="M107.800049,8.33333333 L107.800049,21.6666667" id="Line-2" style="mix-blend-mode: lighten;"></path>
            <path d="M101.800049,0.555555556 L101.800049,29.4444444" id="Line-2" style="mix-blend-mode: lighten;"></path>
            <path d="M123.800049,6.11111111 L123.800049,23.8888889" id="Line-2" style="mix-blend-mode: lighten;"></path>
            <path d="M121.800049,9.44444444 L121.800049,20.5555556" id="Line-2" style="mix-blend-mode: lighten;"></path>
            <path d="M117.800049,12.7777778 L117.800049,17.2222222" id="Line-2" style="mix-blend-mode: lighten;"></path>
            <path d="M119.800049,12.7777778 L119.800049,17.2222222" id="Line-2" style="mix-blend-mode: lighten;"></path>
            <path d="M115.800049,6.11111111 L115.800049,23.8888889" id="Line-2" style="mix-blend-mode: lighten;"></path>
            <path d="M113.800049,10.5555556 L113.800049,19.4444444" id="Line-2" style="mix-blend-mode: lighten;"></path>
            <path d="M129.800049,10.5555556 L129.800049,19.4444444" id="Line-2" style="mix-blend-mode: lighten;"></path>
            <path d="M127.800049,1.66666667 L127.800049,28.3333333" id="Line-2" style="mix-blend-mode: lighten;"></path>
            <path d="M125.800049,6.11111111 L125.800049,23.8888889" id="Line-2" style="mix-blend-mode: lighten;"></path>
            <path d="M243.800049,12.7777778 L243.800049,17.2222222" id="Line-2" style="mix-blend-mode: lighten;"></path>
            <path d="M241.800049,10.5555556 L241.800049,19.4444444" id="Line-2" style="mix-blend-mode: lighten;"></path>
            <path d="M241.800049,2.77777778 L241.800049,28.3333333" id="Line-2" style="mix-blend-mode: lighten;"></path>
            <path d="M245.800049,2.77777778 L245.800049,28.3333333" id="Line-2" style="mix-blend-mode: lighten;"></path>
            <path d="M247.800049,6.11111111 L247.800049,23.8888889" id="Line-2" style="mix-blend-mode: lighten;"></path>
            <path d="M99.8000488,2.77777778 L99.8000488,28.3333333" id="Line-2" style="mix-blend-mode: lighten;"></path>
            <path d="M103.800049,2.77777778 L103.800049,28.3333333" id="Line-2" style="mix-blend-mode: lighten;"></path>
            <path d="M105.800049,6.11111111 L105.800049,23.8888889" id="Line-2" style="mix-blend-mode: lighten;"></path>
            <path d="M101.800049,12.7777778 L101.800049,17.2222222" id="Line-2" style="mix-blend-mode: lighten;"></path>
            <path d="M99.8000488,10.5555556 L99.8000488,19.4444444" id="Line-2" style="mix-blend-mode: lighten;"></path>
            <path d="M113.800049,6.11111111 L113.800049,23.8888889" id="Line-2" style="mix-blend-mode: lighten;"></path>
            <path d="M111.800049,9.44444444 L111.800049,20.5555556" id="Line-2" style="mix-blend-mode: lighten;"></path>
            <path d="M107.800049,12.7777778 L107.800049,17.2222222" id="Line-2" style="mix-blend-mode: lighten;"></path>
            <path d="M109.800049,12.7777778 L109.800049,17.2222222" id="Line-2" style="mix-blend-mode: lighten;"></path>
            <path d="M105.800049,6.11111111 L105.800049,23.8888889" id="Line-2" style="mix-blend-mode: lighten;"></path>
            <path d="M103.800049,10.5555556 L103.800049,19.4444444" id="Line-2" style="mix-blend-mode: lighten;"></path>
            <path d="M125.800049,7.22222222 L125.800049,22.7777778" id="Line-2" style="mix-blend-mode: lighten;"></path>
            <path d="M123.800049,11.6666667 L123.800049,17.2222222" id="Line-2" style="mix-blend-mode: lighten;"></path>
            <path d="M121.800049,8.33333333 L121.800049,21.6666667" id="Line-2" style="mix-blend-mode: lighten;"></path>
            <path d="M119.800049,10.5555556 L119.800049,19.4444444" id="Line-2" style="mix-blend-mode: lighten;"></path>
            <path d="M117.800049,1.66666667 L117.800049,28.3333333" id="Line-2" style="mix-blend-mode: lighten;"></path>
            <path d="M129.800049,7.22222222 L129.800049,22.7777778" id="Line-2" style="mix-blend-mode: lighten;"></path>
            <path d="M127.800049,5 L127.800049,25" id="Line-2" style="mix-blend-mode: lighten;"></path>
            <path d="M115.800049,6.11111111 L115.800049,23.8888889" id="Line-2" style="mix-blend-mode: lighten;"></path>
            <path d="M129.800049,7.22222222 L129.800049,22.7777778" id="Line-2" style="mix-blend-mode: lighten;"></path>
            <path d="M111.800049,12.7777778 L111.800049,17.2222222" id="Line-2" style="mix-blend-mode: lighten;"></path>
            <path d="M109.800049,10.5555556 L109.800049,19.4444444" id="Line-2" style="mix-blend-mode: lighten;"></path>
            <path d="M107.800049,8.33333333 L107.800049,21.6666667" id="Line-2" style="mix-blend-mode: lighten;"></path>
            <path d="M101.800049,0.555555556 L101.800049,29.4444444" id="Line-2" style="mix-blend-mode: lighten;"></path>
            <path d="M123.800049,6.11111111 L123.800049,23.8888889" id="Line-2" style="mix-blend-mode: lighten;"></path>
            <path d="M121.800049,9.44444444 L121.800049,20.5555556" id="Line-2" style="mix-blend-mode: lighten;"></path>
            <path d="M117.800049,12.7777778 L117.800049,17.2222222" id="Line-2" style="mix-blend-mode: lighten;"></path>
            <path d="M119.800049,12.7777778 L119.800049,17.2222222" id="Line-2" style="mix-blend-mode: lighten;"></path>
            <path d="M115.800049,6.11111111 L115.800049,23.8888889" id="Line-2" style="mix-blend-mode: lighten;"></path>
            <path d="M113.800049,10.5555556 L113.800049,19.4444444" id="Line-2" style="mix-blend-mode: lighten;"></path>
            <path d="M129.800049,10.5555556 L129.800049,19.4444444" id="Line-2" style="mix-blend-mode: lighten;"></path>
            <path d="M127.800049,1.66666667 L127.800049,28.3333333" id="Line-2" style="mix-blend-mode: lighten;"></path>
            <path d="M125.800049,6.11111111 L125.800049,23.8888889" id="Line-2" style="mix-blend-mode: lighten;"></path>
            <path d="M213.800049,12.7777778 L213.800049,17.2222222" id="Line-2" style="mix-blend-mode: lighten;"></path>
            <path d="M211.800049,7.22222222 L211.800049,22.7777778" id="Line-2" style="mix-blend-mode: lighten;"></path>
            <path d="M209.800049,5 L209.800049,25" id="Line-2" style="mix-blend-mode: lighten;"></path>
            <path d="M217.800049,2.77777778 L217.800049,27.2222222" id="Line-2" style="mix-blend-mode: lighten;"></path>
            <path d="M213.800049,13.8888889 L213.800049,16.1111111" id="Line-2" style="mix-blend-mode: lighten;"></path>
            <path d="M215.800049,13.8888889 L215.800049,16.1111111" id="Line-2" style="mix-blend-mode: lighten;"></path>
            <path d="M211.800049,7.22222222 L211.800049,22.7777778" id="Line-2" style="mix-blend-mode: lighten;"></path>
            <path d="M217.800049,7.22222222 L217.800049,22.7777778" id="Line-2" style="mix-blend-mode: lighten;"></path>
            <path d="M215.800049,11.6666667 L215.800049,17.2222222" id="Line-2" style="mix-blend-mode: lighten;"></path>
            <path d="M213.800049,8.33333333 L213.800049,21.6666667" id="Line-2" style="mix-blend-mode: lighten;"></path>
            <path d="M211.800049,10.5555556 L211.800049,19.4444444" id="Line-2" style="mix-blend-mode: lighten;"></path>
            <path d="M209.800049,1.66666667 L209.800049,28.3333333" id="Line-2" style="mix-blend-mode: lighten;"></path>
            <path d="M223.800049,12.7777778 L223.800049,17.2222222" id="Line-2" style="mix-blend-mode: lighten;"></path>
            <path d="M221.800049,7.22222222 L221.800049,22.7777778" id="Line-2" style="mix-blend-mode: lighten;"></path>
            <path d="M219.800049,5 L219.800049,25" id="Line-2" style="mix-blend-mode: lighten;"></path>
            <path d="M231.800049,2.77777778 L231.800049,28.3333333" id="Line-2" style="mix-blend-mode: lighten;"></path>
            <path d="M235.800049,2.77777778 L235.800049,28.3333333" id="Line-2" style="mix-blend-mode: lighten;"></path>
            <path d="M229.800049,6.11111111 L229.800049,23.8888889" id="Line-2" style="mix-blend-mode: lighten;"></path>
            <path d="M237.800049,6.11111111 L237.800049,23.8888889" id="Line-2" style="mix-blend-mode: lighten;"></path>
            <path d="M227.800049,2.77777778 L227.800049,27.2222222" id="Line-2" style="mix-blend-mode: lighten;"></path>
            <path d="M223.800049,13.8888889 L223.800049,16.1111111" id="Line-2" style="mix-blend-mode: lighten;"></path>
            <path d="M225.800049,13.8888889 L225.800049,16.1111111" id="Line-2" style="mix-blend-mode: lighten;"></path>
            <path d="M221.800049,7.22222222 L221.800049,22.7777778" id="Line-2" style="mix-blend-mode: lighten;"></path>
            <path d="M239.800049,8.33333333 L239.800049,21.6666667" id="Line-2" style="mix-blend-mode: lighten;"></path>
            <path d="M233.800049,0.555555556 L233.800049,29.4444444" id="Line-2" style="mix-blend-mode: lighten;"></path>
            <path d="M239.800049,6.11111111 L239.800049,23.8888889" id="Line-2" style="mix-blend-mode: lighten;"></path>
            <path d="M237.800049,2.77777778 L237.800049,27.2222222" id="Line-2" style="mix-blend-mode: lighten;"></path>
            <path d="M253.800049,12.7777778 L253.800049,17.2222222" id="Line-2" style="mix-blend-mode: lighten;"></path>
            <path d="M251.800049,10.5555556 L251.800049,19.4444444" id="Line-2" style="mix-blend-mode: lighten;"></path>
            <path d="M249.800049,8.33333333 L249.800049,21.6666667" id="Line-2" style="mix-blend-mode: lighten;"></path>
            <path d="M243.800049,0.555555556 L243.800049,29.4444444" id="Line-2" style="mix-blend-mode: lighten;"></path>
            <path d="M265.800049,6.11111111 L265.800049,23.8888889" id="Line-2" style="mix-blend-mode: lighten;"></path>
            <path d="M263.800049,9.44444444 L263.800049,20.5555556" id="Line-2" style="mix-blend-mode: lighten;"></path>
            <path d="M259.800049,12.7777778 L259.800049,17.2222222" id="Line-2" style="mix-blend-mode: lighten;"></path>
            <path d="M261.800049,12.7777778 L261.800049,17.2222222" id="Line-2" style="mix-blend-mode: lighten;"></path>
            <path d="M257.800049,6.11111111 L257.800049,23.8888889" id="Line-2" style="mix-blend-mode: lighten;"></path>
            <path d="M255.800049,10.5555556 L255.800049,19.4444444" id="Line-2" style="mix-blend-mode: lighten;"></path>
            <path d="M277.800049,7.22222222 L277.800049,22.7777778" id="Line-2" style="mix-blend-mode: lighten;"></path>
            <path d="M275.800049,11.6666667 L275.800049,17.2222222" id="Line-2" style="mix-blend-mode: lighten;"></path>
            <path d="M273.800049,8.33333333 L273.800049,21.6666667" id="Line-2" style="mix-blend-mode: lighten;"></path>
            <path d="M271.800049,10.5555556 L271.800049,19.4444444" id="Line-2" style="mix-blend-mode: lighten;"></path>
            <path d="M269.800049,1.66666667 L269.800049,28.3333333" id="Line-2" style="mix-blend-mode: lighten;"></path>
            <path d="M283.800049,12.7777778 L283.800049,17.2222222" id="Line-2" style="mix-blend-mode: lighten;"></path>
            <path d="M281.800049,7.22222222 L281.800049,22.7777778" id="Line-2" style="mix-blend-mode: lighten;"></path>
            <path d="M279.800049,5 L279.800049,25" id="Line-2" style="mix-blend-mode: lighten;"></path>
            <path d="M267.800049,6.11111111 L267.800049,23.8888889" id="Line-2" style="mix-blend-mode: lighten;"></path>
            <path d="M291.800049,2.77777778 L291.800049,28.3333333" id="Line-2" style="mix-blend-mode: lighten;"></path>
            <path d="M289.800049,6.11111111 L289.800049,23.8888889" id="Line-2" style="mix-blend-mode: lighten;"></path>
            <path d="M287.800049,2.77777778 L287.800049,27.2222222" id="Line-2" style="mix-blend-mode: lighten;"></path>
            <path d="M283.800049,13.8888889 L283.800049,16.1111111" id="Line-2" style="mix-blend-mode: lighten;"></path>
            <path d="M285.800049,13.8888889 L285.800049,16.1111111" id="Line-2" style="mix-blend-mode: lighten;"></path>
            <path d="M281.800049,7.22222222 L281.800049,22.7777778" id="Line-2" style="mix-blend-mode: lighten;"></path>
            <path d="M293.800049,0.555555556 L293.800049,29.4444444" id="Line-2" style="mix-blend-mode: lighten;"></path>
            <path d="M255.800049,6.11111111 L255.800049,23.8888889" id="Line-2" style="mix-blend-mode: lighten;"></path>
            <path d="M253.800049,9.44444444 L253.800049,20.5555556" id="Line-2" style="mix-blend-mode: lighten;"></path>
            <path d="M249.800049,12.7777778 L249.800049,17.2222222" id="Line-2" style="mix-blend-mode: lighten;"></path>
            <path d="M251.800049,12.7777778 L251.800049,17.2222222" id="Line-2" style="mix-blend-mode: lighten;"></path>
            <path d="M247.800049,6.11111111 L247.800049,23.8888889" id="Line-2" style="mix-blend-mode: lighten;"></path>
            <path d="M245.800049,10.5555556 L245.800049,19.4444444" id="Line-2" style="mix-blend-mode: lighten;"></path>
            <path d="M267.800049,7.22222222 L267.800049,22.7777778" id="Line-2" style="mix-blend-mode: lighten;"></path>
            <path d="M265.800049,11.6666667 L265.800049,17.2222222" id="Line-2" style="mix-blend-mode: lighten;"></path>
            <path d="M263.800049,8.33333333 L263.800049,21.6666667" id="Line-2" style="mix-blend-mode: lighten;"></path>
            <path d="M261.800049,10.5555556 L261.800049,19.4444444" id="Line-2" style="mix-blend-mode: lighten;"></path>
            <path d="M259.800049,1.66666667 L259.800049,28.3333333" id="Line-2" style="mix-blend-mode: lighten;"></path>
            <path d="M273.800049,12.7777778 L273.800049,17.2222222" id="Line-2" style="mix-blend-mode: lighten;"></path>
            <path d="M271.800049,7.22222222 L271.800049,22.7777778" id="Line-2" style="mix-blend-mode: lighten;"></path>
            <path d="M269.800049,5 L269.800049,25" id="Line-2" style="mix-blend-mode: lighten;"></path>
            <path d="M257.800049,6.11111111 L257.800049,23.8888889" id="Line-2" style="mix-blend-mode: lighten;"></path>
            <path d="M207.800049,2.77777778 L207.800049,28.3333333" id="Line-2" style="mix-blend-mode: lighten;"></path>
            <path d="M185.199951,2.77777778 L185.199951,28.3333333" id="Line-2" style="mix-blend-mode: lighten;" transform="translate(185.199951, 15.555556) scale(-1, 1) translate(-185.199951, -15.555556) "></path>
            <path d="M187.199951,6.11111111 L187.199951,23.8888889" id="Line-2" style="mix-blend-mode: lighten;" transform="translate(187.199951, 15.000000) scale(-1, 1) translate(-187.199951, -15.000000) "></path>
            <path d="M189.199951,2.77777778 L189.199951,27.2222222" id="Line-2" style="mix-blend-mode: lighten;" transform="translate(189.199951, 15.000000) scale(-1, 1) translate(-189.199951, -15.000000) "></path>
            <path d="M193.199951,13.8888889 L193.199951,16.1111111" id="Line-2" style="mix-blend-mode: lighten;" transform="translate(193.199951, 15.000000) scale(-1, 1) translate(-193.199951, -15.000000) "></path>
            <path d="M191.199951,13.8888889 L191.199951,16.1111111" id="Line-2" style="mix-blend-mode: lighten;" transform="translate(191.199951, 15.000000) scale(-1, 1) translate(-191.199951, -15.000000) "></path>
            <path d="M195.199951,7.22222222 L195.199951,22.7777778" id="Line-2" style="mix-blend-mode: lighten;" transform="translate(195.199951, 15.000000) scale(-1, 1) translate(-195.199951, -15.000000) "></path>
            <path d="M183.199951,0.555555556 L183.199951,29.4444444" id="Line-2" style="mix-blend-mode: lighten;" transform="translate(183.199951, 15.000000) scale(-1, 1) translate(-183.199951, -15.000000) "></path>
            <path d="M203.199951,12.7777778 L203.199951,17.2222222" id="Line-2" style="mix-blend-mode: lighten;" transform="translate(203.199951, 15.000000) scale(-1, 1) translate(-203.199951, -15.000000) "></path>
            <path d="M205.199951,7.22222222 L205.199951,22.7777778" id="Line-2" style="mix-blend-mode: lighten;" transform="translate(205.199951, 15.000000) scale(-1, 1) translate(-205.199951, -15.000000) "></path>
            <path d="M195.199951,2.77777778 L195.199951,28.3333333" id="Line-2" style="mix-blend-mode: lighten;" transform="translate(195.199951, 15.555556) scale(-1, 1) translate(-195.199951, -15.555556) "></path>
            <path d="M197.199951,6.11111111 L197.199951,23.8888889" id="Line-2" style="mix-blend-mode: lighten;" transform="translate(197.199951, 15.000000) scale(-1, 1) translate(-197.199951, -15.000000) "></path>
            <path d="M199.199951,2.77777778 L199.199951,27.2222222" id="Line-2" style="mix-blend-mode: lighten;" transform="translate(199.199951, 15.000000) scale(-1, 1) translate(-199.199951, -15.000000) "></path>
            <path d="M203.199951,13.8888889 L203.199951,16.1111111" id="Line-2" style="mix-blend-mode: lighten;" transform="translate(203.199951, 15.000000) scale(-1, 1) translate(-203.199951, -15.000000) "></path>
            <path d="M201.199951,13.8888889 L201.199951,16.1111111" id="Line-2" style="mix-blend-mode: lighten;" transform="translate(201.199951, 15.000000) scale(-1, 1) translate(-201.199951, -15.000000) "></path>
            <path d="M205.199951,7.22222222 L205.199951,22.7777778" id="Line-2" style="mix-blend-mode: lighten;" transform="translate(205.199951, 15.000000) scale(-1, 1) translate(-205.199951, -15.000000) "></path>
            <path d="M193.199951,0.555555556 L193.199951,29.4444444" id="Line-2" style="mix-blend-mode: lighten;" transform="translate(193.199951, 15.000000) scale(-1, 1) translate(-193.199951, -15.000000) "></path>
            <path d="M177.199951,6.11111111 L177.199951,23.8888889" id="Line-2" style="mix-blend-mode: lighten;"></path>
            <path d="M179.199951,9.44444444 L179.199951,20.5555556" id="Line-2" style="mix-blend-mode: lighten;"></path>
            <path d="M181.199951,12.7777778 L181.199951,17.2222222" id="Line-2" style="mix-blend-mode: lighten;"></path>
            <path d="M175.199951,12.7777778 L175.199951,17.2222222" id="Line-2" style="mix-blend-mode: lighten;"></path>
            <path d="M171.199951,6.11111111 L171.199951,23.8888889" id="Line-2" style="mix-blend-mode: lighten;"></path>
            <path d="M173.199951,10.5555556 L173.199951,19.4444444" id="Line-2" style="mix-blend-mode: lighten;"></path>
            <path d="M167.199951,12.7777778 L167.199951,17.2222222" id="Line-2" style="mix-blend-mode: lighten;"></path>
            <path d="M169.199951,10.5555556 L169.199951,19.4444444" id="Line-2" style="mix-blend-mode: lighten;"></path>
            <path d="M155.199951,6.11111111 L155.199951,23.8888889" id="Line-2" style="mix-blend-mode: lighten;"></path>
            <path d="M157.199951,9.44444444 L157.199951,20.5555556" id="Line-2" style="mix-blend-mode: lighten;"></path>
            <path d="M161.199951,12.7777778 L161.199951,17.2222222" id="Line-2" style="mix-blend-mode: lighten;"></path>
            <path d="M159.199951,12.7777778 L159.199951,17.2222222" id="Line-2" style="mix-blend-mode: lighten;"></path>
            <path d="M163.199951,6.11111111 L163.199951,23.8888889" id="Line-2" style="mix-blend-mode: lighten;"></path>
            <path d="M165.199951,10.5555556 L165.199951,19.4444444" id="Line-2" style="mix-blend-mode: lighten;"></path>
            <path d="M143.199951,7.22222222 L143.199951,22.7777778" id="Line-2" style="mix-blend-mode: lighten;"></path>
            <path d="M145.199951,11.6666667 L145.199951,17.2222222" id="Line-2" style="mix-blend-mode: lighten;"></path>
            <path d="M147.199951,8.33333333 L147.199951,21.6666667" id="Line-2" style="mix-blend-mode: lighten;"></path>
            <path d="M149.199951,10.5555556 L149.199951,19.4444444" id="Line-2" style="mix-blend-mode: lighten;"></path>
            <path d="M151.199951,1.66666667 L151.199951,28.3333333" id="Line-2" style="mix-blend-mode: lighten;"></path>
            <path d="M141.199951,5 L141.199951,25" id="Line-2" style="mix-blend-mode: lighten;"></path>
            <path d="M153.199951,6.11111111 L153.199951,23.8888889" id="Line-2" style="mix-blend-mode: lighten;"></path>
            <path d="M165.199951,6.11111111 L165.199951,23.8888889" id="Line-2" style="mix-blend-mode: lighten;"></path>
            <path d="M167.199951,9.44444444 L167.199951,20.5555556" id="Line-2" style="mix-blend-mode: lighten;"></path>
            <path d="M169.199951,12.7777778 L169.199951,17.2222222" id="Line-2" style="mix-blend-mode: lighten;"></path>
            <path d="M153.199951,7.22222222 L153.199951,22.7777778" id="Line-2" style="mix-blend-mode: lighten;"></path>
            <path d="M155.199951,11.6666667 L155.199951,17.2222222" id="Line-2" style="mix-blend-mode: lighten;"></path>
            <path d="M157.199951,8.33333333 L157.199951,21.6666667" id="Line-2" style="mix-blend-mode: lighten;"></path>
            <path d="M159.199951,10.5555556 L159.199951,19.4444444" id="Line-2" style="mix-blend-mode: lighten;"></path>
            <path d="M161.199951,1.66666667 L161.199951,28.3333333" id="Line-2" style="mix-blend-mode: lighten;"></path>
            <path d="M147.199951,12.7777778 L147.199951,17.2222222" id="Line-2" style="mix-blend-mode: lighten;"></path>
            <path d="M149.199951,7.22222222 L149.199951,22.7777778" id="Line-2" style="mix-blend-mode: lighten;"></path>
            <path d="M151.199951,5 L151.199951,25" id="Line-2" style="mix-blend-mode: lighten;"></path>
            <path d="M163.199951,6.11111111 L163.199951,23.8888889" id="Line-2" style="mix-blend-mode: lighten;"></path>
        </g>
    </g>
</svg>